<svg xmlns="http://www.w3.org/2000/svg" version="1.1" xmlns:xlink="http://www.w3.org/1999/xlink" xmlns:svgjs="http://svgjs.dev/svgjs" width="1000" height="229" viewBox="0 0 1000 229"><g transform="matrix(1,0,0,1,-0.6060606060606233,-0.6074810781486661)"><svg viewBox="0 0 396 91" data-background-color="#ffffff" preserveAspectRatio="xMidYMid meet" height="229" width="1000" xmlns="http://www.w3.org/2000/svg" xmlns:xlink="http://www.w3.org/1999/xlink"><g id="tight-bounds" transform="matrix(1,0,0,1,0.2400000000000091,0.241400777779603)"><svg viewBox="0 0 395.52 90.51712767447779" height="90.51712767447779" width="395.52"><g><svg viewBox="0 0 544.2195053157373 124.54790262339638" height="90.51712767447779" width="395.52"><g transform="matrix(1,0,0,1,148.69950531573724,36.69786279323289)"><svg viewBox="0 0 395.52 51.152177036930595" height="51.152177036930595" width="395.52"><g id="textblocktransform"><svg viewBox="0 0 395.52 51.152177036930595" height="51.152177036930595" width="395.52" id="textblock"><g><svg viewBox="0 0 395.52 51.152177036930595" height="51.152177036930595" width="395.52"><g transform="matrix(1,0,0,1,0,0)"><svg width="395.52" viewBox="1.4900000095367432 -42.189998626708984 340.7300109863281 43.94999694824219" height="51.152177036930595" data-palette-color="#89939e"><g class="undefined-text-0" data-fill-palette-color="primary" id="text-0"><path d="M27.86-38.67L1.49-38.67 1.49-40.43 27.86-40.43 27.86-38.67ZM27.86-35.16L1.49-35.16 1.49-36.91 27.86-36.91 27.86-35.16ZM8.52-31.64L1.49-31.64 1.49-33.4 27.86-33.4 27.86-31.64 20.83-31.64 20.83 0 19.07 0 19.07-31.64 17.31-31.64 17.31 0 15.55 0 15.55-31.64 13.79-31.64 13.79 0 12.04 0 12.04-31.64 10.28-31.64 10.28 0 8.52 0 8.52-31.64ZM46.07-27.05Q43.23-24.22 43.23-20.21 43.23-16.21 46.07-13.38 48.9-10.55 52.9-10.55 56.91-10.55 59.74-13.38 62.57-16.21 62.57-20.21 62.57-24.22 59.74-27.05 56.91-29.88 52.9-29.88 48.9-29.88 46.07-27.05ZM42.38-15.78Q41.48-17.9 41.48-20.21 41.48-22.53 42.38-24.65 43.28-26.76 44.82-28.3 46.36-29.83 48.47-30.74 50.58-31.64 52.9-31.64 55.22-31.64 57.33-30.74 59.45-29.83 60.98-28.3 62.52-26.76 63.43-24.65 64.33-22.53 64.33-20.21 64.33-17.9 63.43-15.78 62.52-13.67 60.98-12.13 59.45-10.6 57.33-9.69 55.22-8.79 52.9-8.79 50.58-8.79 48.47-9.69 46.36-10.6 44.82-12.13 43.28-13.67 42.38-15.78ZM41.49-26.83Q39.72-23.8 39.72-20.21 39.72-16.63 41.49-13.6 43.26-10.57 46.29-8.8 49.31-7.03 52.9-7.03 56.49-7.03 59.52-8.8 62.55-10.57 64.32-13.6 66.09-16.63 66.09-20.21 66.09-23.8 64.32-26.83 62.55-29.86 59.52-31.63 56.49-33.4 52.9-33.4 49.31-33.4 46.29-31.63 43.26-29.86 41.49-26.83ZM39.96-12.72Q37.96-16.16 37.96-20.21 37.96-24.27 39.96-27.71 41.97-31.15 45.41-33.15 48.85-35.16 52.9-35.16 56.96-35.16 60.4-33.15 63.84-31.15 65.84-27.71 67.84-24.27 67.84-20.21 67.84-16.16 65.84-12.72 63.84-9.28 60.4-7.28 56.96-5.27 52.9-5.27 48.85-5.27 45.41-7.28 41.97-9.28 39.96-12.72ZM37.52-26.71Q36.2-23.61 36.2-20.21 36.2-16.82 37.52-13.72 38.84-10.62 41.07-8.39 43.31-6.15 46.41-4.83 49.51-3.52 52.9-3.52 56.3-3.52 59.4-4.83 62.5-6.15 64.73-8.39 66.97-10.62 68.28-13.72 69.6-16.82 69.6-20.21 69.6-23.61 68.28-26.71 66.97-29.81 64.73-32.04 62.5-34.28 59.4-35.6 56.3-36.91 52.9-36.91 49.51-36.91 46.41-35.6 43.31-34.28 41.07-32.04 38.84-29.81 37.52-26.71ZM36.92-10.96Q34.45-15.21 34.45-20.21 34.45-25.22 36.92-29.47 39.4-33.72 43.65-36.19 47.9-38.67 52.9-38.67 57.91-38.67 62.16-36.19 66.4-33.72 68.88-29.47 71.36-25.22 71.36-20.21 71.36-15.21 68.88-10.96 66.4-6.71 62.16-4.24 57.91-1.76 52.9-1.76 47.9-1.76 43.65-4.24 39.4-6.71 36.92-10.96ZM34.29-28.06Q32.69-24.32 32.69-20.21 32.69-16.11 34.29-12.37 35.89-8.62 38.6-5.91 41.31-3.2 45.05-1.6 48.8 0 52.9 0 57 0 60.75-1.6 64.5-3.2 67.21-5.91 69.92-8.62 71.52-12.37 73.12-16.11 73.12-20.21 73.12-24.32 71.52-28.06 69.92-31.81 67.21-34.52 64.5-37.23 60.75-38.83 57-40.43 52.9-40.43 48.8-40.43 45.05-38.83 41.31-37.23 38.6-34.52 35.89-31.81 34.29-28.06ZM32.68-11.68Q30.93-15.75 30.93-20.21 30.93-24.68 32.68-28.75 34.42-32.81 37.36-35.75 40.31-38.7 44.37-40.44 48.44-42.19 52.9-42.19 57.37-42.19 61.44-40.44 65.5-38.7 68.44-35.75 71.38-32.81 73.13-28.75 74.88-24.68 74.88-20.21 74.88-15.75 73.13-11.68 71.38-7.62 68.44-4.68 65.5-1.73 61.44 0.01 57.37 1.76 52.9 1.76 48.44 1.76 44.37 0.01 40.31-1.73 37.36-4.68 34.42-7.62 32.68-11.68ZM92.18-17.38L92.18-19.14 102.39-19.14Q104.9-19.14 106.65-20.84 108.39-22.53 108.39-25.63L108.39-25.63Q108.39-27.95 106.56-29.8 104.73-31.64 102.39-31.64L102.39-31.64 87.3-31.64 87.3 0 85.54 0 85.54-33.4 102.39-33.4Q105.46-33.4 107.81-31.03 110.15-28.66 110.15-25.63L110.15-25.63Q110.15-21.9 107.88-19.64 105.61-17.38 102.39-17.38L102.39-17.38 92.18-17.38ZM92.18-13.87L92.18-15.63 102.39-15.63Q104.93-15.63 107.09-16.86 109.25-18.09 110.58-20.41 111.91-22.73 111.91-25.63L111.91-25.63Q111.91-29.39 109.04-32.28 106.17-35.16 102.39-35.16L102.39-35.16 83.78-35.16 83.78 0 82.03 0 82.03-36.91 102.39-36.91Q105.34-36.91 107.95-35.35 110.57-33.79 112.12-31.18 113.67-28.56 113.67-25.63L113.67-25.63Q113.67-22.31 112.1-19.59 110.54-16.87 107.97-15.37 105.39-13.87 102.39-13.87L102.39-13.87 92.18-13.87ZM92.18-10.35L92.18-12.11 102.39-12.11Q105-12.11 107.39-13.15 109.79-14.18 111.56-15.95 113.33-17.72 114.37-20.25 115.42-22.78 115.42-25.63L115.42-25.63Q115.42-29.05 113.64-32.07 111.86-35.08 108.85-36.88 105.83-38.67 102.39-38.67L102.39-38.67 80.27-38.67 80.27 0 78.51 0 78.51-40.43 102.39-40.43Q106.29-40.43 109.71-38.39 113.13-36.35 115.16-32.93 117.18-29.52 117.18-25.63L117.18-25.63Q117.18-22.17 115.99-19.25 114.79-16.33 112.76-14.4 110.74-12.48 108.05-11.41 105.37-10.35 102.39-10.35L102.39-10.35 92.18-10.35ZM90.82-28.13L90.82 0 89.06 0 89.06-29.88 102.39-29.88Q104.12-29.88 105.38-28.61 106.64-27.34 106.64-25.63L106.64-25.63Q106.64-20.9 102.39-20.9L102.39-20.9 92.18-20.9 92.18-22.66 102.39-22.66Q103.56-22.66 104.22-23.32 104.88-23.97 104.88-25.63L104.88-25.63Q104.88-26.71 104.16-27.42 103.44-28.13 102.39-28.13L102.39-28.13 90.82-28.13Z" fill="#89939e" data-fill-palette-color="primary"></path><path d="M148.55 0L148.55-14.75 150.31-18.07 150.31 0 148.55 0ZM152.07 0L152.07-21.48 153.83-24.8 153.83 0 152.07 0ZM155.58 0L155.58-28.13 157.34-31.47 157.34 0 155.58 0ZM156.88-40.43L143.79-15.58 142.79-17.41 154.9-40.43 156.88-40.43ZM152.9-40.43L141.76-19.41 140.74-21.26 150.9-40.43 152.9-40.43ZM130 0L130-17.87 131.76-14.55 131.76 0 130 0ZM126.48 0L126.48-24.56 128.24-21.24 128.24 0 126.48 0ZM122.97 0L122.97-31.25 124.72-27.91 124.72 0 122.97 0ZM121.43-40.43L137.18-10.55 135.2-10.55 121.21-37.08 121.21 0 119.45 0 119.45-40.43 121.43-40.43ZM125.43-40.43L141.15-10.55 139.15-10.55 123.43-40.43 125.43-40.43ZM159.1 0L159.1-37.08 145.11-10.55 143.11-10.55 127.41-40.43 129.39-40.43 144.13-12.4 158.85-40.43 160.86-40.43 160.86 0 159.1 0ZM179.73-27.05Q176.89-24.22 176.89-20.21 176.89-16.21 179.73-13.38 182.56-10.55 186.56-10.55 190.57-10.55 193.4-13.38 196.23-16.21 196.23-20.21 196.23-24.22 193.4-27.05 190.57-29.88 186.56-29.88 182.56-29.88 179.73-27.05ZM176.04-15.78Q175.14-17.9 175.14-20.21 175.14-22.53 176.04-24.65 176.94-26.76 178.48-28.3 180.02-29.83 182.13-30.74 184.24-31.64 186.56-31.64 188.88-31.64 190.99-30.74 193.11-29.83 194.64-28.3 196.18-26.76 197.08-24.65 197.99-22.53 197.99-20.21 197.99-17.9 197.08-15.78 196.18-13.67 194.64-12.13 193.11-10.6 190.99-9.69 188.88-8.79 186.56-8.79 184.24-8.79 182.13-9.69 180.02-10.6 178.48-12.13 176.94-13.67 176.04-15.78ZM175.15-26.83Q173.38-23.8 173.38-20.21 173.38-16.63 175.15-13.6 176.92-10.57 179.95-8.8 182.97-7.03 186.56-7.03 190.15-7.03 193.18-8.8 196.21-10.57 197.98-13.6 199.75-16.63 199.75-20.21 199.75-23.8 197.98-26.83 196.21-29.86 193.18-31.63 190.15-33.4 186.56-33.4 182.97-33.4 179.95-31.63 176.92-29.86 175.15-26.83ZM173.62-12.72Q171.62-16.16 171.62-20.21 171.62-24.27 173.62-27.71 175.62-31.15 179.07-33.15 182.51-35.16 186.56-35.16 190.62-35.16 194.06-33.15 197.5-31.15 199.5-27.71 201.5-24.27 201.5-20.21 201.5-16.16 199.5-12.72 197.5-9.28 194.06-7.28 190.62-5.27 186.56-5.27 182.51-5.27 179.07-7.28 175.62-9.28 173.62-12.72ZM171.18-26.71Q169.86-23.61 169.86-20.21 169.86-16.82 171.18-13.72 172.5-10.62 174.73-8.39 176.97-6.15 180.07-4.83 183.17-3.52 186.56-3.52 189.96-3.52 193.06-4.83 196.16-6.15 198.39-8.39 200.62-10.62 201.94-13.72 203.26-16.82 203.26-20.21 203.26-23.61 201.94-26.71 200.62-29.81 198.39-32.04 196.16-34.28 193.06-35.6 189.96-36.91 186.56-36.91 183.17-36.91 180.07-35.6 176.97-34.28 174.73-32.04 172.5-29.81 171.18-26.71ZM170.58-10.96Q168.11-15.21 168.11-20.21 168.11-25.22 170.58-29.47 173.06-33.72 177.31-36.19 181.56-38.67 186.56-38.67 191.57-38.67 195.82-36.19 200.06-33.72 202.54-29.47 205.02-25.22 205.02-20.21 205.02-15.21 202.54-10.96 200.06-6.71 195.82-4.24 191.57-1.76 186.56-1.76 181.56-1.76 177.31-4.24 173.06-6.71 170.58-10.96ZM167.95-28.06Q166.35-24.32 166.35-20.21 166.35-16.11 167.95-12.37 169.55-8.62 172.26-5.91 174.97-3.2 178.71-1.6 182.46 0 186.56 0 190.66 0 194.41-1.6 198.16-3.2 200.87-5.91 203.58-8.62 205.18-12.37 206.78-16.11 206.78-20.21 206.78-24.32 205.18-28.06 203.58-31.81 200.87-34.52 198.16-37.23 194.41-38.83 190.66-40.43 186.56-40.43 182.46-40.43 178.71-38.83 174.97-37.23 172.26-34.52 169.55-31.81 167.95-28.06ZM166.34-11.68Q164.59-15.75 164.59-20.21 164.59-24.68 166.34-28.75 168.08-32.81 171.02-35.75 173.96-38.7 178.03-40.44 182.09-42.19 186.56-42.19 191.03-42.19 195.09-40.44 199.16-38.7 202.1-35.75 205.04-32.81 206.79-28.75 208.53-24.68 208.53-20.21 208.53-15.75 206.79-11.68 205.04-7.62 202.1-4.68 199.16-1.73 195.09 0.01 191.03 1.76 186.56 1.76 182.09 1.76 178.03 0.01 173.96-1.73 171.02-4.68 168.08-7.62 166.34-11.68ZM226.79 0L210.8-40.43 212.71-40.43 227.75-2.37 242.79-40.43 244.67-40.43 228.7 0 226.79 0ZM216.47-40.43L228.97-8.79 227.97-6.54 214.59-40.43 216.47-40.43ZM220.28-40.43L230.85-13.6 229.92-11.18 218.37-40.43 220.28-40.43ZM224.04-40.43L232.7-18.48 231.77-16.02 222.16-40.43 224.04-40.43ZM238.15 0L254.11-40.43 256.02-40.43 240.03 0 238.15 0ZM234.36 0L250.35-40.43 252.23-40.43 236.24 0 234.36 0ZM230.58 0L246.55-40.43 248.45-40.43 232.46 0 230.58 0ZM269.76 0L269.76-40.43 271.52-40.43 271.52 0 269.76 0ZM266.24 0L266.24-40.43 268-40.43 268 0 266.24 0ZM262.73 0L262.73-40.43 264.49-40.43 264.49 0 262.73 0ZM259.21 0L259.21-40.43 260.97-40.43 260.97 0 259.21 0ZM284.94-40.43L284.94 0 283.19 0 283.19-40.43 284.94-40.43ZM281.43-40.43L281.43 0 279.67 0 279.67-40.43 281.43-40.43ZM277.91-40.43L277.91 0 276.15 0 276.15-40.43 277.91-40.43ZM288.46-15.82L288.46-8.79 307.16-8.79 307.16-7.03 288.46-7.03 288.46-5.27 307.16-5.27 307.16-3.52 288.46-3.52 288.46-1.76 307.16-1.76 307.16 0 286.7 0 286.7-40.43 307.16-40.43 307.16-38.67 288.46-38.67 288.46-36.91 307.16-36.91 307.16-35.16 288.46-35.16 288.46-33.4 307.16-33.4 307.16-31.64 288.46-31.64 288.46-24.61 298.05-24.61 298.05-22.85 288.46-22.85 288.46-21.09 298.05-21.09 298.05-19.34 288.46-19.34 288.46-17.58 298.05-17.58 298.05-15.82 288.46-15.82ZM327.81-24.61L327.81-24.61 324.86-24.61Q322.98-24.61 322.15-25.57 321.32-26.54 321.32-28.13L321.32-28.13Q321.32-31.64 326.57-31.64L326.57-31.64Q331.5-31.64 333.99-30.18L333.99-30.18 332.57-29.1Q330.86-29.88 326.57-29.88L326.57-29.88Q324.47-29.88 323.75-29.42 323.03-28.96 323.03-28.13 323.03-27.29 323.42-26.83 323.81-26.37 324.86-26.37L324.86-26.37 327.89-26.37Q331.18-26.37 333.83-25.24 336.48-24.12 338.19-22.18 339.9-20.24 340.8-17.71 341.7-15.19 341.7-12.3L341.7-12.3Q341.7-9.96 341.04-7.86 340.39-5.76 339.05-4 337.72-2.25 335.86-0.96 333.99 0.32 331.41 1.04 328.84 1.76 325.83 1.76L325.83 1.76Q321.12 1.76 317.01 0.33 312.9-1.1 310.16-3.66L310.16-3.66 311.58-4.71Q314.07-2.47 317.81-1.23 321.56 0 325.83 0L325.83 0Q329.18 0 331.88-0.96 334.57-1.93 336.32-3.61 338.07-5.3 339.01-7.52 339.95-9.74 339.95-12.3L339.95-12.3Q339.95-15.7 338.58-18.44 337.21-21.19 334.42-22.9 331.62-24.61 327.81-24.61ZM324.86-22.85L324.86-22.85 327.64-22.85Q332.6-22.85 335.39-19.82 338.19-16.8 338.19-12.3L338.19-12.3Q338.19-7.74 334.94-4.75 331.69-1.76 325.83-1.76L325.83-1.76Q321.93-1.76 318.53-2.83 315.14-3.91 312.9-5.86L312.9-5.86 314.26-6.96Q316.26-5.32 319.3-4.42 322.34-3.52 325.83-3.52L325.83-3.52Q330.99-3.52 333.71-5.98 336.43-8.45 336.43-12.3L336.43-12.3Q336.43-16.11 334.15-18.6 331.86-21.09 327.62-21.09L327.62-21.09 324.86-21.09Q321.29-21.09 319.51-23.05 317.73-25 317.73-28.13 317.73-31.25 319.94-33.2 322.15-35.16 326.57-35.16L326.57-35.16Q329.67-35.16 332.33-34.44 334.99-33.72 336.72-32.37L336.72-32.37 335.33-31.3Q332.28-33.4 326.57-33.4L326.57-33.4Q322.88-33.4 321.18-31.95 319.49-30.49 319.49-28.13L319.49-28.13Q319.49-25.73 320.74-24.29 322-22.85 324.86-22.85ZM324.86-19.34L324.86-19.34 327.54-19.34Q331.11-19.34 332.89-17.36 334.67-15.38 334.67-12.3L334.67-12.3Q334.67-9.18 332.46-7.23 330.25-5.27 325.83-5.27L325.83-5.27Q322.73-5.27 320.06-5.99 317.39-6.71 315.65-8.06L315.65-8.06 317.05-9.13Q320.1-7.03 325.83-7.03L325.83-7.03Q329.52-7.03 331.22-8.48 332.91-9.94 332.91-12.3 332.91-14.67 331.65-16.13 330.38-17.58 327.52-17.58L327.52-17.58 324.86-17.58Q319.85-17.58 317.03-20.57 314.21-23.56 314.21-28.13 314.21-32.69 317.46-35.68 320.71-38.67 326.57-38.67L326.57-38.67Q330.47-38.67 333.85-37.6 337.24-36.52 339.48-34.57L339.48-34.57 338.11-33.47Q336.11-35.11 333.09-36.01 330.06-36.91 326.57-36.91L326.57-36.91Q321.42-36.91 318.69-34.45 315.97-31.98 315.97-28.13L315.97-28.13Q315.97-24.29 318.27-21.81 320.56-19.34 324.86-19.34ZM324.86-15.82L324.86-15.82 327.54-15.82Q329.42-15.82 330.25-14.84 331.08-13.87 331.08-12.3L331.08-12.3Q331.08-8.79 325.83-8.79L325.83-8.79Q320.88-8.79 318.39-10.25L318.39-10.25 319.8-11.33Q321.51-10.55 325.83-10.55L325.83-10.55Q327.93-10.55 328.65-11.01 329.37-11.47 329.37-12.3L329.37-12.3Q329.37-13.11 328.97-13.59 328.57-14.06 327.49-14.06L327.49-14.06 324.86-14.06Q321.49-14.06 318.77-15.16 316.04-16.26 314.3-18.19 312.55-20.12 311.63-22.66 310.7-25.2 310.7-28.13L310.7-28.13Q310.7-30.47 311.36-32.57 312.02-34.67 313.35-36.43 314.68-38.18 316.54-39.47 318.41-40.75 320.99-41.47 323.56-42.19 326.57-42.19L326.57-42.19Q331.28-42.19 335.38-40.76 339.48-39.33 342.22-36.77L342.22-36.77 340.8-35.72Q338.31-37.96 334.57-39.2 330.84-40.43 326.57-40.43L326.57-40.43Q323.22-40.43 320.52-39.47 317.83-38.5 316.08-36.82 314.34-35.13 313.4-32.91 312.46-30.69 312.46-28.13L312.46-28.13Q312.46-24.68 313.85-21.92 315.24-19.17 318.1-17.49 320.95-15.82 324.86-15.82Z" fill="#dedede" data-fill-palette-color="secondary"></path></g></svg></g></svg></g></svg></g></svg></g><g><svg viewBox="0 0 124.54790262339638 124.54790262339638" height="124.54790262339638" width="124.54790262339638"><g><svg></svg></g><g id="icon-0"><svg viewBox="0 0 124.54790262339638 124.54790262339638" height="124.54790262339638" width="124.54790262339638"><g><path d="M0 62.274c0-34.393 27.881-62.274 62.274-62.274 34.393 0 62.274 27.881 62.274 62.274 0 34.393-27.881 62.274-62.274 62.274-34.393 0-62.274-27.881-62.274-62.274zM62.274 119.935c31.845 0 57.661-25.816 57.661-57.661 0-31.845-25.816-57.661-57.661-57.661-31.845 0-57.661 25.816-57.661 57.661 0 31.845 25.816 57.661 57.661 57.661z" data-fill-palette-color="accent" fill="#ec1919" stroke="transparent"></path></g><g transform="matrix(1,0,0,1,26.236130306923144,32.78846139870042)"><svg viewBox="0 0 72.0756420095501 58.970979825995535" height="58.970979825995535" width="72.0756420095501"><g><svg xmlns="http://www.w3.org/2000/svg" xmlns:xlink="http://www.w3.org/1999/xlink" version="1.1" x="0" y="0" viewBox="0.5 28.5 22 18" enable-background="new 0.5 24.5 24 24" xml:space="preserve" height="58.970979825995535" width="72.0756420095501" class="icon-s-0" data-fill-palette-color="accent" id="s-0"><path d="M0.5 28.5v18h22v-18H0.5zM4.5 44.5h-2v-2h2V44.5zM4.5 40.5h-2v-2h2V40.5zM4.5 36.5h-2v-2h2V36.5zM4.5 32.5h-2v-2h2V32.5zM16.5 44.5h-10v-14h10V44.5zM20.5 44.5h-2v-2h2V44.5zM20.5 40.5h-2v-2h2V40.5zM20.5 36.5h-2v-2h2V36.5zM20.5 32.5h-2v-2h2V32.5z" fill="#ec1919" data-fill-palette-color="accent"></path></svg></g></svg></g></svg></g></svg></g></svg></g><defs></defs></svg><rect width="395.52" height="90.51712767447779" fill="none" stroke="none" visibility="hidden"></rect></g></svg></g></svg>